<?xml version="1.0" encoding="UTF-8" standalone="no"?>
<!DOCTYPE svg PUBLIC "-//W3C//DTD SVG 1.1//EN"
 "http://www.w3.org/Graphics/SVG/1.1/DTD/svg11.dtd">
<!-- Generated by graphviz version 2.42.3 (20191010.1750)
 -->
<!-- Title: snakemake_dag Pages: 1 -->
<svg width="618pt" height="332pt"
 viewBox="0.00 0.00 618.00 332.00" xmlns="http://www.w3.org/2000/svg" xmlns:xlink="http://www.w3.org/1999/xlink">
<g id="graph0" class="graph" transform="scale(1 1) rotate(0) translate(4 328)">
<title>snakemake_dag</title>
<polygon fill="white" stroke="transparent" points="-4,4 -4,-328 614,-328 614,4 -4,4"/>
<!-- 0 -->
<g id="node1" class="node">
<title>0</title>
<path fill="none" stroke="#56c9d8" stroke-width="2" stroke-dasharray="5,2" d="M309,-36C309,-36 279,-36 279,-36 273,-36 267,-30 267,-24 267,-24 267,-12 267,-12 267,-6 273,0 279,0 279,0 309,0 309,0 315,0 321,-6 321,-12 321,-12 321,-24 321,-24 321,-30 315,-36 309,-36"/>
<text text-anchor="middle" x="294" y="-15.5" font-family="sans" font-size="10.00">all</text>
</g>
<!-- 1 -->
<g id="node2" class="node">
<title>1</title>
<path fill="none" stroke="#70d856" stroke-width="2" stroke-dasharray="5,2" d="M329,-108C329,-108 259,-108 259,-108 253,-108 247,-102 247,-96 247,-96 247,-84 247,-84 247,-78 253,-72 259,-72 259,-72 329,-72 329,-72 335,-72 341,-78 341,-84 341,-84 341,-96 341,-96 341,-102 335,-108 329,-108"/>
<text text-anchor="middle" x="294" y="-87.5" font-family="sans" font-size="10.00">merge_features</text>
</g>
<!-- 1&#45;&gt;0 -->
<g id="edge1" class="edge">
<title>1&#45;&gt;0</title>
<path fill="none" stroke="grey" stroke-width="2" d="M294,-71.7C294,-63.98 294,-54.71 294,-46.11"/>
<polygon fill="grey" stroke="grey" stroke-width="2" points="297.5,-46.1 294,-36.1 290.5,-46.1 297.5,-46.1"/>
</g>
<!-- 2 -->
<g id="node3" class="node">
<title>2</title>
<path fill="none" stroke="#d85656" stroke-width="2" stroke-dasharray="5,2" d="M110,-180C110,-180 12,-180 12,-180 6,-180 0,-174 0,-168 0,-168 0,-156 0,-156 0,-150 6,-144 12,-144 12,-144 110,-144 110,-144 116,-144 122,-150 122,-156 122,-156 122,-168 122,-168 122,-174 116,-180 110,-180"/>
<text text-anchor="middle" x="61" y="-159.5" font-family="sans" font-size="10.00">compute_universality</text>
</g>
<!-- 2&#45;&gt;1 -->
<g id="edge2" class="edge">
<title>2&#45;&gt;1</title>
<path fill="none" stroke="grey" stroke-width="2" d="M117.7,-143.97C153.9,-133.09 200.67,-119.04 236.94,-108.14"/>
<polygon fill="grey" stroke="grey" stroke-width="2" points="238.3,-111.39 246.87,-105.16 236.29,-104.68 238.3,-111.39"/>
</g>
<!-- 3 -->
<g id="node4" class="node">
<title>3</title>
<path fill="none" stroke="#d88d56" stroke-width="2" stroke-dasharray="5,2" d="M253.5,-180C253.5,-180 152.5,-180 152.5,-180 146.5,-180 140.5,-174 140.5,-168 140.5,-168 140.5,-156 140.5,-156 140.5,-150 146.5,-144 152.5,-144 152.5,-144 253.5,-144 253.5,-144 259.5,-144 265.5,-150 265.5,-156 265.5,-156 265.5,-168 265.5,-168 265.5,-174 259.5,-180 253.5,-180"/>
<text text-anchor="middle" x="203" y="-159.5" font-family="sans" font-size="10.00">compute_duplicability</text>
</g>
<!-- 3&#45;&gt;1 -->
<g id="edge3" class="edge">
<title>3&#45;&gt;1</title>
<path fill="none" stroke="grey" stroke-width="2" d="M225.49,-143.7C236.96,-134.88 251.06,-124.03 263.48,-114.47"/>
<polygon fill="grey" stroke="grey" stroke-width="2" points="265.97,-116.98 271.76,-108.1 261.7,-111.43 265.97,-116.98"/>
</g>
<!-- 4 -->
<g id="node5" class="node">
<title>4</title>
<path fill="none" stroke="#afd856" stroke-width="2" stroke-dasharray="5,2" d="M383,-252C383,-252 231,-252 231,-252 225,-252 219,-246 219,-240 219,-240 219,-228 219,-228 219,-222 225,-216 231,-216 231,-216 383,-216 383,-216 389,-216 395,-222 395,-228 395,-228 395,-240 395,-240 395,-246 389,-252 383,-252"/>
<text text-anchor="middle" x="307" y="-231.5" font-family="sans" font-size="10.00">compute_average_copy_number</text>
</g>
<!-- 4&#45;&gt;1 -->
<g id="edge4" class="edge">
<title>4&#45;&gt;1</title>
<path fill="none" stroke="grey" stroke-width="2" d="M305.43,-215.87C303.22,-191.67 299.15,-147.21 296.51,-118.39"/>
<polygon fill="grey" stroke="grey" stroke-width="2" points="299.97,-117.83 295.57,-108.19 293,-118.47 299.97,-117.83"/>
</g>
<!-- 5 -->
<g id="node6" class="node">
<title>5</title>
<path fill="none" stroke="#d8cb56" stroke-width="2" stroke-dasharray="5,2" d="M489.5,-180C489.5,-180 334.5,-180 334.5,-180 328.5,-180 322.5,-174 322.5,-168 322.5,-168 322.5,-156 322.5,-156 322.5,-150 328.5,-144 334.5,-144 334.5,-144 489.5,-144 489.5,-144 495.5,-144 501.5,-150 501.5,-156 501.5,-156 501.5,-168 501.5,-168 501.5,-174 495.5,-180 489.5,-180"/>
<text text-anchor="middle" x="412" y="-159.5" font-family="sans" font-size="10.00">compute_copy_number_variation</text>
</g>
<!-- 4&#45;&gt;5 -->
<g id="edge11" class="edge">
<title>4&#45;&gt;5</title>
<path fill="none" stroke="grey" stroke-width="2" d="M332.69,-215.88C346.29,-206.81 363.17,-195.55 377.86,-185.76"/>
<polygon fill="grey" stroke="grey" stroke-width="2" points="379.84,-188.65 386.22,-180.19 375.95,-182.82 379.84,-188.65"/>
</g>
<!-- 5&#45;&gt;1 -->
<g id="edge5" class="edge">
<title>5&#45;&gt;1</title>
<path fill="none" stroke="grey" stroke-width="2" d="M383.13,-143.88C367.71,-134.72 348.52,-123.34 331.9,-113.48"/>
<polygon fill="grey" stroke="grey" stroke-width="2" points="333.36,-110.28 322.98,-108.19 329.79,-116.3 333.36,-110.28"/>
</g>
<!-- 6 -->
<g id="node7" class="node">
<title>6</title>
<path fill="none" stroke="#56d8a9" stroke-width="2" stroke-dasharray="5,2" d="M548.5,-252C548.5,-252 489.5,-252 489.5,-252 483.5,-252 477.5,-246 477.5,-240 477.5,-240 477.5,-228 477.5,-228 477.5,-222 483.5,-216 489.5,-216 489.5,-216 548.5,-216 548.5,-216 554.5,-216 560.5,-222 560.5,-228 560.5,-228 560.5,-240 560.5,-240 560.5,-246 554.5,-252 548.5,-252"/>
<text text-anchor="middle" x="519" y="-231.5" font-family="sans" font-size="10.00">compute_age</text>
</g>
<!-- 6&#45;&gt;1 -->
<g id="edge6" class="edge">
<title>6&#45;&gt;1</title>
<path fill="none" stroke="grey" stroke-width="2" d="M522.84,-215.68C526.13,-195.91 528,-163.76 511,-144 490.42,-120.08 408.32,-105.15 351.23,-97.45"/>
<polygon fill="grey" stroke="grey" stroke-width="2" points="351.61,-93.97 341.24,-96.14 350.7,-100.91 351.61,-93.97"/>
</g>
<!-- 7 -->
<g id="node8" class="node">
<title>7</title>
<path fill="none" stroke="#56d873" stroke-width="2" stroke-dasharray="5,2" d="M375.5,-324C375.5,-324 238.5,-324 238.5,-324 232.5,-324 226.5,-318 226.5,-312 226.5,-312 226.5,-300 226.5,-300 226.5,-294 232.5,-288 238.5,-288 238.5,-288 375.5,-288 375.5,-288 381.5,-288 387.5,-294 387.5,-300 387.5,-300 387.5,-312 387.5,-312 387.5,-318 381.5,-324 375.5,-324"/>
<text text-anchor="middle" x="307" y="-303.5" font-family="sans" font-size="10.00">create_orthology_dictionaries</text>
</g>
<!-- 7&#45;&gt;2 -->
<g id="edge7" class="edge">
<title>7&#45;&gt;2</title>
<path fill="none" stroke="grey" stroke-width="2" d="M267.42,-287.96C245.66,-278.17 218.41,-265.22 195,-252 158.8,-231.55 119.38,-204.78 92.73,-185.96"/>
<polygon fill="grey" stroke="grey" stroke-width="2" points="94.73,-183.09 84.55,-180.15 90.67,-188.8 94.73,-183.09"/>
</g>
<!-- 7&#45;&gt;3 -->
<g id="edge8" class="edge">
<title>7&#45;&gt;3</title>
<path fill="none" stroke="grey" stroke-width="2" d="M254.46,-287.89C237.51,-279.72 220.43,-268.11 210,-252 198.26,-233.86 197.23,-209.08 198.73,-190.28"/>
<polygon fill="grey" stroke="grey" stroke-width="2" points="202.21,-190.57 199.8,-180.26 195.25,-189.83 202.21,-190.57"/>
</g>
<!-- 7&#45;&gt;4 -->
<g id="edge9" class="edge">
<title>7&#45;&gt;4</title>
<path fill="none" stroke="grey" stroke-width="2" d="M307,-287.7C307,-279.98 307,-270.71 307,-262.11"/>
<polygon fill="grey" stroke="grey" stroke-width="2" points="310.5,-262.1 307,-252.1 303.5,-262.1 310.5,-262.1"/>
</g>
<!-- 7&#45;&gt;5 -->
<g id="edge10" class="edge">
<title>7&#45;&gt;5</title>
<path fill="none" stroke="grey" stroke-width="2" d="M359.19,-287.95C376.21,-279.76 393.43,-268.13 404,-252 415.86,-233.91 417.17,-209.13 415.91,-190.31"/>
<polygon fill="grey" stroke="grey" stroke-width="2" points="419.39,-189.91 414.96,-180.28 412.42,-190.56 419.39,-189.91"/>
</g>
<!-- 7&#45;&gt;6 -->
<g id="edge12" class="edge">
<title>7&#45;&gt;6</title>
<path fill="none" stroke="grey" stroke-width="2" d="M358.59,-287.97C391.83,-276.99 434.87,-262.78 468,-251.84"/>
<polygon fill="grey" stroke="grey" stroke-width="2" points="469.1,-255.16 477.5,-248.7 466.9,-248.52 469.1,-255.16"/>
</g>
<!-- 8 -->
<g id="node9" class="node">
<title>8</title>
<path fill="none" stroke="#5692d8" stroke-width="2" stroke-dasharray="5,2" d="M598,-324C598,-324 440,-324 440,-324 434,-324 428,-318 428,-312 428,-312 428,-300 428,-300 428,-294 434,-288 440,-288 440,-288 598,-288 598,-288 604,-288 610,-294 610,-300 610,-300 610,-312 610,-312 610,-318 604,-324 598,-324"/>
<text text-anchor="middle" x="519" y="-303.5" font-family="sans" font-size="10.00">create_mrca_branchlengths_table</text>
</g>
<!-- 8&#45;&gt;6 -->
<g id="edge13" class="edge">
<title>8&#45;&gt;6</title>
<path fill="none" stroke="grey" stroke-width="2" d="M519,-287.7C519,-279.98 519,-270.71 519,-262.11"/>
<polygon fill="grey" stroke="grey" stroke-width="2" points="522.5,-262.1 519,-252.1 515.5,-262.1 522.5,-262.1"/>
</g>
</g>
</svg>
