<?xml version="1.0" encoding="UTF-8" standalone="no"?>
<!DOCTYPE svg PUBLIC "-//W3C//DTD SVG 1.1//EN"
 "http://www.w3.org/Graphics/SVG/1.1/DTD/svg11.dtd">
<!-- Generated by graphviz version 2.42.3 (20191010.1750)
 -->
<!-- Title: snakemake_dag Pages: 1 -->
<svg width="666pt" height="260pt"
 viewBox="0.00 0.00 665.50 260.00" xmlns="http://www.w3.org/2000/svg" xmlns:xlink="http://www.w3.org/1999/xlink">
<g id="graph0" class="graph" transform="scale(1 1) rotate(0) translate(4 256)">
<title>snakemake_dag</title>
<polygon fill="white" stroke="transparent" points="-4,4 -4,-256 661.5,-256 661.5,4 -4,4"/>
<!-- 0 -->
<g id="node1" class="node">
<title>0</title>
<path fill="none" stroke="#56a2d8" stroke-width="2" stroke-dasharray="5,2" d="M302,-36C302,-36 272,-36 272,-36 266,-36 260,-30 260,-24 260,-24 260,-12 260,-12 260,-6 266,0 272,0 272,0 302,0 302,0 308,0 314,-6 314,-12 314,-12 314,-24 314,-24 314,-30 308,-36 302,-36"/>
<text text-anchor="middle" x="287" y="-15.5" font-family="sans" font-size="10.00">all</text>
</g>
<!-- 1 -->
<g id="node2" class="node">
<title>1</title>
<path fill="none" stroke="#56d8c9" stroke-width="2" stroke-dasharray="5,2" d="M322,-108C322,-108 252,-108 252,-108 246,-108 240,-102 240,-96 240,-96 240,-84 240,-84 240,-78 246,-72 252,-72 252,-72 322,-72 322,-72 328,-72 334,-78 334,-84 334,-84 334,-96 334,-96 334,-102 328,-108 322,-108"/>
<text text-anchor="middle" x="287" y="-87.5" font-family="sans" font-size="10.00">merge_features</text>
</g>
<!-- 1&#45;&gt;0 -->
<g id="edge1" class="edge">
<title>1&#45;&gt;0</title>
<path fill="none" stroke="grey" stroke-width="2" d="M287,-71.7C287,-63.98 287,-54.71 287,-46.11"/>
<polygon fill="grey" stroke="grey" stroke-width="2" points="290.5,-46.1 287,-36.1 283.5,-46.1 290.5,-46.1"/>
</g>
<!-- 2 -->
<g id="node3" class="node">
<title>2</title>
<path fill="none" stroke="#d8a456" stroke-width="2" stroke-dasharray="5,2" d="M110,-180C110,-180 12,-180 12,-180 6,-180 0,-174 0,-168 0,-168 0,-156 0,-156 0,-150 6,-144 12,-144 12,-144 110,-144 110,-144 116,-144 122,-150 122,-156 122,-156 122,-168 122,-168 122,-174 116,-180 110,-180"/>
<text text-anchor="middle" x="61" y="-159.5" font-family="sans" font-size="10.00">compute_universality</text>
</g>
<!-- 2&#45;&gt;1 -->
<g id="edge2" class="edge">
<title>2&#45;&gt;1</title>
<path fill="none" stroke="grey" stroke-width="2" d="M116,-143.97C150.63,-133.24 195.24,-119.42 230.21,-108.59"/>
<polygon fill="grey" stroke="grey" stroke-width="2" points="231.29,-111.92 239.8,-105.62 229.21,-105.23 231.29,-111.92"/>
</g>
<!-- 3 -->
<g id="node4" class="node">
<title>3</title>
<path fill="none" stroke="#56d87b" stroke-width="2" stroke-dasharray="5,2" d="M253.5,-180C253.5,-180 152.5,-180 152.5,-180 146.5,-180 140.5,-174 140.5,-168 140.5,-168 140.5,-156 140.5,-156 140.5,-150 146.5,-144 152.5,-144 152.5,-144 253.5,-144 253.5,-144 259.5,-144 265.5,-150 265.5,-156 265.5,-156 265.5,-168 265.5,-168 265.5,-174 259.5,-180 253.5,-180"/>
<text text-anchor="middle" x="203" y="-159.5" font-family="sans" font-size="10.00">compute_duplicability</text>
</g>
<!-- 3&#45;&gt;1 -->
<g id="edge3" class="edge">
<title>3&#45;&gt;1</title>
<path fill="none" stroke="grey" stroke-width="2" d="M223.76,-143.7C234.24,-134.97 247.11,-124.24 258.5,-114.75"/>
<polygon fill="grey" stroke="grey" stroke-width="2" points="261.03,-117.19 266.47,-108.1 256.55,-111.82 261.03,-117.19"/>
</g>
<!-- 4 -->
<g id="node5" class="node">
<title>4</title>
<path fill="none" stroke="#c6d856" stroke-width="2" stroke-dasharray="5,2" d="M448,-180C448,-180 296,-180 296,-180 290,-180 284,-174 284,-168 284,-168 284,-156 284,-156 284,-150 290,-144 296,-144 296,-144 448,-144 448,-144 454,-144 460,-150 460,-156 460,-156 460,-168 460,-168 460,-174 454,-180 448,-180"/>
<text text-anchor="middle" x="372" y="-159.5" font-family="sans" font-size="10.00">compute_average_copy_number</text>
</g>
<!-- 4&#45;&gt;1 -->
<g id="edge4" class="edge">
<title>4&#45;&gt;1</title>
<path fill="none" stroke="grey" stroke-width="2" d="M350.99,-143.7C340.28,-134.88 327.11,-124.03 315.5,-114.47"/>
<polygon fill="grey" stroke="grey" stroke-width="2" points="317.71,-111.76 307.77,-108.1 313.26,-117.16 317.71,-111.76"/>
</g>
<!-- 5 -->
<g id="node6" class="node">
<title>5</title>
<path fill="none" stroke="#d85656" stroke-width="2" stroke-dasharray="5,2" d="M645.5,-180C645.5,-180 490.5,-180 490.5,-180 484.5,-180 478.5,-174 478.5,-168 478.5,-168 478.5,-156 478.5,-156 478.5,-150 484.5,-144 490.5,-144 490.5,-144 645.5,-144 645.5,-144 651.5,-144 657.5,-150 657.5,-156 657.5,-156 657.5,-168 657.5,-168 657.5,-174 651.5,-180 645.5,-180"/>
<text text-anchor="middle" x="568" y="-159.5" font-family="sans" font-size="10.00">compute_copy_number_variation</text>
</g>
<!-- 5&#45;&gt;1 -->
<g id="edge5" class="edge">
<title>5&#45;&gt;1</title>
<path fill="none" stroke="grey" stroke-width="2" d="M499.62,-143.97C451.89,-132.08 388.93,-116.39 343.94,-105.18"/>
<polygon fill="grey" stroke="grey" stroke-width="2" points="344.6,-101.74 334.05,-102.72 342.91,-108.53 344.6,-101.74"/>
</g>
<!-- 6 -->
<g id="node7" class="node">
<title>6</title>
<path fill="none" stroke="#78d856" stroke-width="2" stroke-dasharray="5,2" d="M355.5,-252C355.5,-252 218.5,-252 218.5,-252 212.5,-252 206.5,-246 206.5,-240 206.5,-240 206.5,-228 206.5,-228 206.5,-222 212.5,-216 218.5,-216 218.5,-216 355.5,-216 355.5,-216 361.5,-216 367.5,-222 367.5,-228 367.5,-228 367.5,-240 367.5,-240 367.5,-246 361.5,-252 355.5,-252"/>
<text text-anchor="middle" x="287" y="-231.5" font-family="sans" font-size="10.00">create_orthology_dictionaries</text>
</g>
<!-- 6&#45;&gt;2 -->
<g id="edge6" class="edge">
<title>6&#45;&gt;2</title>
<path fill="none" stroke="grey" stroke-width="2" d="M232,-215.97C200.01,-206.06 159.52,-193.51 125.96,-183.12"/>
<polygon fill="grey" stroke="grey" stroke-width="2" points="126.83,-179.73 116.24,-180.11 124.76,-186.41 126.83,-179.73"/>
</g>
<!-- 6&#45;&gt;3 -->
<g id="edge7" class="edge">
<title>6&#45;&gt;3</title>
<path fill="none" stroke="grey" stroke-width="2" d="M266.24,-215.7C255.76,-206.97 242.89,-196.24 231.5,-186.75"/>
<polygon fill="grey" stroke="grey" stroke-width="2" points="233.45,-183.82 223.53,-180.1 228.97,-189.19 233.45,-183.82"/>
</g>
<!-- 6&#45;&gt;4 -->
<g id="edge8" class="edge">
<title>6&#45;&gt;4</title>
<path fill="none" stroke="grey" stroke-width="2" d="M308.01,-215.7C318.72,-206.88 331.89,-196.03 343.5,-186.47"/>
<polygon fill="grey" stroke="grey" stroke-width="2" points="345.74,-189.16 351.23,-180.1 341.29,-183.76 345.74,-189.16"/>
</g>
<!-- 6&#45;&gt;5 -->
<g id="edge9" class="edge">
<title>6&#45;&gt;5</title>
<path fill="none" stroke="grey" stroke-width="2" d="M355.38,-215.97C395.84,-205.89 447.24,-193.08 489.37,-182.59"/>
<polygon fill="grey" stroke="grey" stroke-width="2" points="490.45,-185.92 499.31,-180.11 488.76,-179.13 490.45,-185.92"/>
</g>
</g>
</svg>
