<?xml version="1.0" encoding="UTF-8" standalone="no"?>
<!DOCTYPE svg PUBLIC "-//W3C//DTD SVG 1.1//EN"
 "http://www.w3.org/Graphics/SVG/1.1/DTD/svg11.dtd">
<!-- Generated by graphviz version 2.42.3 (20191010.1750)
 -->
<!-- Title: snakemake_dag Pages: 1 -->
<svg width="429pt" height="332pt"
 viewBox="0.00 0.00 428.75 332.00" xmlns="http://www.w3.org/2000/svg" xmlns:xlink="http://www.w3.org/1999/xlink">
<g id="graph0" class="graph" transform="scale(1 1) rotate(0) translate(4 328)">
<title>snakemake_dag</title>
<polygon fill="white" stroke="transparent" points="-4,4 -4,-328 424.75,-328 424.75,4 -4,4"/>
<!-- 0 -->
<g id="node1" class="node">
<title>0</title>
<path fill="none" stroke="#56d87b" stroke-width="2" stroke-dasharray="5,2" d="M188,-36C188,-36 158,-36 158,-36 152,-36 146,-30 146,-24 146,-24 146,-12 146,-12 146,-6 152,0 158,0 158,0 188,0 188,0 194,0 200,-6 200,-12 200,-12 200,-24 200,-24 200,-30 194,-36 188,-36"/>
<text text-anchor="middle" x="173" y="-15.5" font-family="sans" font-size="10.00">all</text>
</g>
<!-- 1 -->
<g id="node2" class="node">
<title>1</title>
<path fill="none" stroke="#c6d856" stroke-width="2" stroke-dasharray="5,2" d="M208,-108C208,-108 138,-108 138,-108 132,-108 126,-102 126,-96 126,-96 126,-84 126,-84 126,-78 132,-72 138,-72 138,-72 208,-72 208,-72 214,-72 220,-78 220,-84 220,-84 220,-96 220,-96 220,-102 214,-108 208,-108"/>
<text text-anchor="middle" x="173" y="-87.5" font-family="sans" font-size="10.00">merge_features</text>
</g>
<!-- 1&#45;&gt;0 -->
<g id="edge1" class="edge">
<title>1&#45;&gt;0</title>
<path fill="none" stroke="grey" stroke-width="2" d="M173,-71.7C173,-63.98 173,-54.71 173,-46.11"/>
<polygon fill="grey" stroke="grey" stroke-width="2" points="176.5,-46.1 173,-36.1 169.5,-46.1 176.5,-46.1"/>
</g>
<!-- 2 -->
<g id="node3" class="node">
<title>2</title>
<path fill="none" stroke="#d8a456" stroke-width="2" stroke-dasharray="5,2" d="M110,-180C110,-180 12,-180 12,-180 6,-180 0,-174 0,-168 0,-168 0,-156 0,-156 0,-150 6,-144 12,-144 12,-144 110,-144 110,-144 116,-144 122,-150 122,-156 122,-156 122,-168 122,-168 122,-174 116,-180 110,-180"/>
<text text-anchor="middle" x="61" y="-159.5" font-family="sans" font-size="10.00">compute_universality</text>
</g>
<!-- 2&#45;&gt;1 -->
<g id="edge2" class="edge">
<title>2&#45;&gt;1</title>
<path fill="none" stroke="grey" stroke-width="2" d="M88.4,-143.88C102.91,-134.81 120.92,-123.55 136.59,-113.76"/>
<polygon fill="grey" stroke="grey" stroke-width="2" points="138.87,-116.46 145.5,-108.19 135.16,-110.52 138.87,-116.46"/>
</g>
<!-- 3 -->
<g id="node4" class="node">
<title>3</title>
<path fill="none" stroke="#78d856" stroke-width="2" stroke-dasharray="5,2" d="M198.5,-252C198.5,-252 97.5,-252 97.5,-252 91.5,-252 85.5,-246 85.5,-240 85.5,-240 85.5,-228 85.5,-228 85.5,-222 91.5,-216 97.5,-216 97.5,-216 198.5,-216 198.5,-216 204.5,-216 210.5,-222 210.5,-228 210.5,-228 210.5,-240 210.5,-240 210.5,-246 204.5,-252 198.5,-252"/>
<text text-anchor="middle" x="148" y="-231.5" font-family="sans" font-size="10.00">compute_duplicability</text>
</g>
<!-- 3&#45;&gt;1 -->
<g id="edge3" class="edge">
<title>3&#45;&gt;1</title>
<path fill="none" stroke="grey" stroke-width="2" d="M151.02,-215.87C155.28,-191.67 163.1,-147.21 168.18,-118.39"/>
<polygon fill="grey" stroke="grey" stroke-width="2" points="171.69,-118.64 169.97,-108.19 164.79,-117.43 171.69,-118.64"/>
</g>
<!-- 4 -->
<g id="node5" class="node">
<title>4</title>
<path fill="none" stroke="#d85656" stroke-width="2" stroke-dasharray="5,2" d="M393,-252C393,-252 241,-252 241,-252 235,-252 229,-246 229,-240 229,-240 229,-228 229,-228 229,-222 235,-216 241,-216 241,-216 393,-216 393,-216 399,-216 405,-222 405,-228 405,-228 405,-240 405,-240 405,-246 399,-252 393,-252"/>
<text text-anchor="middle" x="317" y="-231.5" font-family="sans" font-size="10.00">compute_average_copy_number</text>
</g>
<!-- 4&#45;&gt;1 -->
<g id="edge4" class="edge">
<title>4&#45;&gt;1</title>
<path fill="none" stroke="grey" stroke-width="2" d="M272.77,-216C254.46,-207.32 234.04,-195.32 219,-180 201.67,-162.35 189.4,-136.84 181.92,-117.66"/>
<polygon fill="grey" stroke="grey" stroke-width="2" points="185.2,-116.43 178.44,-108.27 178.63,-118.87 185.2,-116.43"/>
</g>
<!-- 5 -->
<g id="node6" class="node">
<title>5</title>
<path fill="none" stroke="#56d8c9" stroke-width="2" stroke-dasharray="5,2" d="M394.5,-180C394.5,-180 239.5,-180 239.5,-180 233.5,-180 227.5,-174 227.5,-168 227.5,-168 227.5,-156 227.5,-156 227.5,-150 233.5,-144 239.5,-144 239.5,-144 394.5,-144 394.5,-144 400.5,-144 406.5,-150 406.5,-156 406.5,-156 406.5,-168 406.5,-168 406.5,-174 400.5,-180 394.5,-180"/>
<text text-anchor="middle" x="317" y="-159.5" font-family="sans" font-size="10.00">compute_copy_number_variation</text>
</g>
<!-- 4&#45;&gt;5 -->
<g id="edge10" class="edge">
<title>4&#45;&gt;5</title>
<path fill="none" stroke="grey" stroke-width="2" d="M317,-215.7C317,-207.98 317,-198.71 317,-190.11"/>
<polygon fill="grey" stroke="grey" stroke-width="2" points="320.5,-190.1 317,-180.1 313.5,-190.1 320.5,-190.1"/>
</g>
<!-- 5&#45;&gt;1 -->
<g id="edge5" class="edge">
<title>5&#45;&gt;1</title>
<path fill="none" stroke="grey" stroke-width="2" d="M281.77,-143.88C262.42,-134.47 238.23,-122.71 217.57,-112.67"/>
<polygon fill="grey" stroke="grey" stroke-width="2" points="218.89,-109.41 208.36,-108.19 215.83,-115.71 218.89,-109.41"/>
</g>
<!-- 6 -->
<g id="node7" class="node">
<title>6</title>
<path fill="none" stroke="#56a2d8" stroke-width="2" stroke-dasharray="5,2" d="M300.5,-324C300.5,-324 163.5,-324 163.5,-324 157.5,-324 151.5,-318 151.5,-312 151.5,-312 151.5,-300 151.5,-300 151.5,-294 157.5,-288 163.5,-288 163.5,-288 300.5,-288 300.5,-288 306.5,-288 312.5,-294 312.5,-300 312.5,-300 312.5,-312 312.5,-312 312.5,-318 306.5,-324 300.5,-324"/>
<text text-anchor="middle" x="232" y="-303.5" font-family="sans" font-size="10.00">create_orthology_dictionaries</text>
</g>
<!-- 6&#45;&gt;2 -->
<g id="edge6" class="edge">
<title>6&#45;&gt;2</title>
<path fill="none" stroke="grey" stroke-width="2" d="M151.33,-294.32C124.07,-286.76 95.81,-273.9 77,-252 62.5,-235.12 59.15,-209.64 59.05,-190.27"/>
<polygon fill="grey" stroke="grey" stroke-width="2" points="62.55,-190.3 59.28,-180.23 55.55,-190.14 62.55,-190.3"/>
</g>
<!-- 6&#45;&gt;3 -->
<g id="edge7" class="edge">
<title>6&#45;&gt;3</title>
<path fill="none" stroke="grey" stroke-width="2" d="M211.24,-287.7C200.76,-278.97 187.89,-268.24 176.5,-258.75"/>
<polygon fill="grey" stroke="grey" stroke-width="2" points="178.45,-255.82 168.53,-252.1 173.97,-261.19 178.45,-255.82"/>
</g>
<!-- 6&#45;&gt;4 -->
<g id="edge8" class="edge">
<title>6&#45;&gt;4</title>
<path fill="none" stroke="grey" stroke-width="2" d="M253.01,-287.7C263.72,-278.88 276.89,-268.03 288.5,-258.47"/>
<polygon fill="grey" stroke="grey" stroke-width="2" points="290.74,-261.16 296.23,-252.1 286.29,-255.76 290.74,-261.16"/>
</g>
<!-- 6&#45;&gt;5 -->
<g id="edge9" class="edge">
<title>6&#45;&gt;5</title>
<path fill="none" stroke="grey" stroke-width="2" d="M312.53,-291.35C355.15,-282.3 401.26,-268.98 414,-252 423.6,-239.2 422.16,-229.76 414,-216 406.09,-202.66 393.51,-192.47 380,-184.75"/>
<polygon fill="grey" stroke="grey" stroke-width="2" points="381.5,-181.59 371.02,-180.04 378.24,-187.79 381.5,-181.59"/>
</g>
</g>
</svg>
