<?xml version="1.0" encoding="UTF-8" standalone="no"?>
<!DOCTYPE svg PUBLIC "-//W3C//DTD SVG 1.1//EN"
 "http://www.w3.org/Graphics/SVG/1.1/DTD/svg11.dtd">
<!-- Generated by graphviz version 2.42.3 (20191010.1750)
 -->
<!-- Title: snakemake_dag Pages: 1 -->
<svg width="1002pt" height="260pt"
 viewBox="0.00 0.00 1002.00 260.00" xmlns="http://www.w3.org/2000/svg" xmlns:xlink="http://www.w3.org/1999/xlink">
<g id="graph0" class="graph" transform="scale(1 1) rotate(0) translate(4 256)">
<title>snakemake_dag</title>
<polygon fill="white" stroke="transparent" points="-4,4 -4,-256 998,-256 998,4 -4,4"/>
<!-- 0 -->
<g id="node1" class="node">
<title>0</title>
<path fill="none" stroke="#568ad8" stroke-width="2" d="M488,-36C488,-36 458,-36 458,-36 452,-36 446,-30 446,-24 446,-24 446,-12 446,-12 446,-6 452,0 458,0 458,0 488,0 488,0 494,0 500,-6 500,-12 500,-12 500,-24 500,-24 500,-30 494,-36 488,-36"/>
<text text-anchor="middle" x="473" y="-15.5" font-family="sans" font-size="10.00">all</text>
</g>
<!-- 1 -->
<g id="node2" class="node">
<title>1</title>
<path fill="none" stroke="#56d8c1" stroke-width="2" d="M537,-108C537,-108 409,-108 409,-108 403,-108 397,-102 397,-96 397,-96 397,-84 397,-84 397,-78 403,-72 409,-72 409,-72 537,-72 537,-72 543,-72 549,-78 549,-84 549,-84 549,-96 549,-96 549,-102 543,-108 537,-108"/>
<text text-anchor="middle" x="473" y="-87.5" font-family="sans" font-size="10.00">merge_orthogroup_features</text>
</g>
<!-- 1&#45;&gt;0 -->
<g id="edge1" class="edge">
<title>1&#45;&gt;0</title>
<path fill="none" stroke="grey" stroke-width="2" d="M473,-71.7C473,-63.98 473,-54.71 473,-46.11"/>
<polygon fill="grey" stroke="grey" stroke-width="2" points="476.5,-46.1 473,-36.1 469.5,-46.1 476.5,-46.1"/>
</g>
<!-- 2 -->
<g id="node3" class="node">
<title>2</title>
<path fill="none" stroke="#56d88a" stroke-width="2" d="M156,-180C156,-180 12,-180 12,-180 6,-180 0,-174 0,-168 0,-168 0,-156 0,-156 0,-150 6,-144 12,-144 12,-144 156,-144 156,-144 162,-144 168,-150 168,-156 168,-156 168,-168 168,-168 168,-174 162,-180 156,-180"/>
<text text-anchor="middle" x="84" y="-159.5" font-family="sans" font-size="10.00">split_user_orthogroup_features</text>
</g>
<!-- 2&#45;&gt;1 -->
<g id="edge2" class="edge">
<title>2&#45;&gt;1</title>
<path fill="none" stroke="grey" stroke-width="2" d="M168.15,-145.6C171.13,-145.06 174.09,-144.53 177,-144 247.66,-131.22 327.84,-116.87 386.91,-106.33"/>
<polygon fill="grey" stroke="grey" stroke-width="2" points="387.71,-109.74 396.94,-104.54 386.48,-102.85 387.71,-109.74"/>
</g>
<!-- 3 -->
<g id="node4" class="node">
<title>3</title>
<path fill="none" stroke="#88d856" stroke-width="2" d="M296,-180C296,-180 198,-180 198,-180 192,-180 186,-174 186,-168 186,-168 186,-156 186,-156 186,-150 192,-144 198,-144 198,-144 296,-144 296,-144 302,-144 308,-150 308,-156 308,-156 308,-168 308,-168 308,-174 302,-180 296,-180"/>
<text text-anchor="middle" x="247" y="-159.5" font-family="sans" font-size="10.00">compute_universality</text>
</g>
<!-- 3&#45;&gt;1 -->
<g id="edge3" class="edge">
<title>3&#45;&gt;1</title>
<path fill="none" stroke="grey" stroke-width="2" d="M302,-143.97C333.99,-134.06 374.48,-121.51 408.04,-111.12"/>
<polygon fill="grey" stroke="grey" stroke-width="2" points="409.24,-114.41 417.76,-108.11 407.17,-107.73 409.24,-114.41"/>
</g>
<!-- 4 -->
<g id="node5" class="node">
<title>4</title>
<path fill="none" stroke="#bed856" stroke-width="2" d="M439.5,-180C439.5,-180 338.5,-180 338.5,-180 332.5,-180 326.5,-174 326.5,-168 326.5,-168 326.5,-156 326.5,-156 326.5,-150 332.5,-144 338.5,-144 338.5,-144 439.5,-144 439.5,-144 445.5,-144 451.5,-150 451.5,-156 451.5,-156 451.5,-168 451.5,-168 451.5,-174 445.5,-180 439.5,-180"/>
<text text-anchor="middle" x="389" y="-159.5" font-family="sans" font-size="10.00">compute_duplicability</text>
</g>
<!-- 4&#45;&gt;1 -->
<g id="edge4" class="edge">
<title>4&#45;&gt;1</title>
<path fill="none" stroke="grey" stroke-width="2" d="M409.76,-143.7C420.24,-134.97 433.11,-124.24 444.5,-114.75"/>
<polygon fill="grey" stroke="grey" stroke-width="2" points="447.03,-117.19 452.47,-108.1 442.55,-111.82 447.03,-117.19"/>
</g>
<!-- 5 -->
<g id="node6" class="node">
<title>5</title>
<path fill="none" stroke="#d85656" stroke-width="2" d="M634,-180C634,-180 482,-180 482,-180 476,-180 470,-174 470,-168 470,-168 470,-156 470,-156 470,-150 476,-144 482,-144 482,-144 634,-144 634,-144 640,-144 646,-150 646,-156 646,-156 646,-168 646,-168 646,-174 640,-180 634,-180"/>
<text text-anchor="middle" x="558" y="-159.5" font-family="sans" font-size="10.00">compute_average_copy_number</text>
</g>
<!-- 5&#45;&gt;1 -->
<g id="edge5" class="edge">
<title>5&#45;&gt;1</title>
<path fill="none" stroke="grey" stroke-width="2" d="M536.99,-143.7C526.28,-134.88 513.11,-124.03 501.5,-114.47"/>
<polygon fill="grey" stroke="grey" stroke-width="2" points="503.71,-111.76 493.77,-108.1 499.26,-117.16 503.71,-111.76"/>
</g>
<!-- 6 -->
<g id="node7" class="node">
<title>6</title>
<path fill="none" stroke="#56c1d8" stroke-width="2" d="M831.5,-180C831.5,-180 676.5,-180 676.5,-180 670.5,-180 664.5,-174 664.5,-168 664.5,-168 664.5,-156 664.5,-156 664.5,-150 670.5,-144 676.5,-144 676.5,-144 831.5,-144 831.5,-144 837.5,-144 843.5,-150 843.5,-156 843.5,-156 843.5,-168 843.5,-168 843.5,-174 837.5,-180 831.5,-180"/>
<text text-anchor="middle" x="754" y="-159.5" font-family="sans" font-size="10.00">compute_copy_number_variation</text>
</g>
<!-- 6&#45;&gt;1 -->
<g id="edge6" class="edge">
<title>6&#45;&gt;1</title>
<path fill="none" stroke="grey" stroke-width="2" d="M685.62,-143.97C645.16,-133.89 593.76,-121.08 551.63,-110.59"/>
<polygon fill="grey" stroke="grey" stroke-width="2" points="552.24,-107.13 541.69,-108.11 550.55,-113.92 552.24,-107.13"/>
</g>
<!-- 7 -->
<g id="node8" class="node">
<title>7</title>
<path fill="none" stroke="#59d856" stroke-width="2" d="M932.5,-180C932.5,-180 873.5,-180 873.5,-180 867.5,-180 861.5,-174 861.5,-168 861.5,-168 861.5,-156 861.5,-156 861.5,-150 867.5,-144 873.5,-144 873.5,-144 932.5,-144 932.5,-144 938.5,-144 944.5,-150 944.5,-156 944.5,-156 944.5,-168 944.5,-168 944.5,-174 938.5,-180 932.5,-180"/>
<text text-anchor="middle" x="903" y="-159.5" font-family="sans" font-size="10.00">compute_age</text>
</g>
<!-- 7&#45;&gt;1 -->
<g id="edge7" class="edge">
<title>7&#45;&gt;1</title>
<path fill="none" stroke="grey" stroke-width="2" d="M861.43,-146.21C858.59,-145.4 855.77,-144.66 853,-144 753.61,-120.4 636.92,-106.05 559.34,-98.34"/>
<polygon fill="grey" stroke="grey" stroke-width="2" points="559.42,-94.84 549.13,-97.35 558.74,-101.8 559.42,-94.84"/>
</g>
<!-- 8 -->
<g id="node9" class="node">
<title>8</title>
<path fill="none" stroke="#d8bc56" stroke-width="2" d="M614,-252C614,-252 502,-252 502,-252 496,-252 490,-246 490,-240 490,-240 490,-228 490,-228 490,-222 496,-216 502,-216 502,-216 614,-216 614,-216 620,-216 626,-222 626,-228 626,-228 626,-240 626,-240 626,-246 620,-252 614,-252"/>
<text text-anchor="middle" x="558" y="-231.5" font-family="sans" font-size="10.00">process_orthology_table</text>
</g>
<!-- 8&#45;&gt;3 -->
<g id="edge8" class="edge">
<title>8&#45;&gt;3</title>
<path fill="none" stroke="grey" stroke-width="2" d="M489.87,-218.43C443.91,-208.51 381.66,-194.88 317.89,-180.18"/>
<polygon fill="grey" stroke="grey" stroke-width="2" points="318.6,-176.75 308.06,-177.91 317.02,-183.57 318.6,-176.75"/>
</g>
<!-- 8&#45;&gt;4 -->
<g id="edge9" class="edge">
<title>8&#45;&gt;4</title>
<path fill="none" stroke="grey" stroke-width="2" d="M516.66,-215.88C493.45,-206.26 464.31,-194.19 439.73,-184.01"/>
<polygon fill="grey" stroke="grey" stroke-width="2" points="440.79,-180.66 430.21,-180.07 438.11,-187.13 440.79,-180.66"/>
</g>
<!-- 8&#45;&gt;5 -->
<g id="edge10" class="edge">
<title>8&#45;&gt;5</title>
<path fill="none" stroke="grey" stroke-width="2" d="M558,-215.7C558,-207.98 558,-198.71 558,-190.11"/>
<polygon fill="grey" stroke="grey" stroke-width="2" points="561.5,-190.1 558,-180.1 554.5,-190.1 561.5,-190.1"/>
</g>
<!-- 8&#45;&gt;6 -->
<g id="edge11" class="edge">
<title>8&#45;&gt;6</title>
<path fill="none" stroke="grey" stroke-width="2" d="M605.7,-215.97C633.08,-206.19 667.66,-193.84 696.53,-183.52"/>
<polygon fill="grey" stroke="grey" stroke-width="2" points="697.85,-186.77 706.09,-180.11 695.5,-180.18 697.85,-186.77"/>
</g>
<!-- 8&#45;&gt;7 -->
<g id="edge12" class="edge">
<title>8&#45;&gt;7</title>
<path fill="none" stroke="grey" stroke-width="2" d="M626.29,-223.7C684.19,-215.14 769.5,-200.94 851.66,-180.16"/>
<polygon fill="grey" stroke="grey" stroke-width="2" points="852.58,-183.54 861.4,-177.67 850.84,-176.76 852.58,-183.54"/>
</g>
<!-- 9 -->
<g id="node10" class="node">
<title>9</title>
<path fill="none" stroke="#d88d56" stroke-width="2" d="M982,-252C982,-252 824,-252 824,-252 818,-252 812,-246 812,-240 812,-240 812,-228 812,-228 812,-222 818,-216 824,-216 824,-216 982,-216 982,-216 988,-216 994,-222 994,-228 994,-228 994,-240 994,-240 994,-246 988,-252 982,-252"/>
<text text-anchor="middle" x="903" y="-231.5" font-family="sans" font-size="10.00">create_mrca_branchlengths_table</text>
</g>
<!-- 9&#45;&gt;7 -->
<g id="edge13" class="edge">
<title>9&#45;&gt;7</title>
<path fill="none" stroke="grey" stroke-width="2" d="M903,-215.7C903,-207.98 903,-198.71 903,-190.11"/>
<polygon fill="grey" stroke="grey" stroke-width="2" points="906.5,-190.1 903,-180.1 899.5,-190.1 906.5,-190.1"/>
</g>
</g>
</svg>
